<mxfile host="app.diagrams.net" agent="Mozilla/5.0 (Windows NT 10.0; Win64; x64) AppleWebKit/537.36 (KHTML, like Gecko) Chrome/138.0.0.0 Safari/537.36" version="27.2.0">
  <diagram name="Página-1" id="GGK_G6vM3Q0lwhCfepNb">
    <mxGraphModel dx="1385" dy="776" grid="1" gridSize="10" guides="1" tooltips="1" connect="1" arrows="1" fold="1" page="1" pageScale="1" pageWidth="1169" pageHeight="827" background="#8EFDFF" math="0" shadow="0">
      <root>
        <mxCell id="0" />
        <mxCell id="1" parent="0" />
        <mxCell id="jdDbVD5xY_cFmAnzBWXt-3" value="" style="edgeStyle=orthogonalEdgeStyle;rounded=0;orthogonalLoop=1;jettySize=auto;html=1;" edge="1" parent="1" source="jdDbVD5xY_cFmAnzBWXt-1">
          <mxGeometry relative="1" as="geometry">
            <mxPoint x="239" y="180" as="targetPoint" />
          </mxGeometry>
        </mxCell>
        <mxCell id="jdDbVD5xY_cFmAnzBWXt-1" value="Nueva notificación de inscripción" style="rounded=0;whiteSpace=wrap;html=1;" vertex="1" parent="1">
          <mxGeometry x="39" y="150" width="120" height="60" as="geometry" />
        </mxCell>
        <mxCell id="jdDbVD5xY_cFmAnzBWXt-26" value="" style="edgeStyle=orthogonalEdgeStyle;rounded=0;orthogonalLoop=1;jettySize=auto;html=1;" edge="1" parent="1" source="jdDbVD5xY_cFmAnzBWXt-9" target="jdDbVD5xY_cFmAnzBWXt-25">
          <mxGeometry relative="1" as="geometry" />
        </mxCell>
        <mxCell id="jdDbVD5xY_cFmAnzBWXt-9" value="Extracción de datos interesantes" style="swimlane;fontStyle=0;childLayout=stackLayout;horizontal=1;startSize=30;horizontalStack=0;resizeParent=1;resizeParentMax=0;resizeLast=0;collapsible=1;marginBottom=0;whiteSpace=wrap;html=1;" vertex="1" parent="1">
          <mxGeometry x="239" y="30" width="140" height="330" as="geometry" />
        </mxCell>
        <mxCell id="jdDbVD5xY_cFmAnzBWXt-10" value="Empresa" style="text;strokeColor=none;fillColor=none;align=left;verticalAlign=middle;spacingLeft=4;spacingRight=4;overflow=hidden;points=[[0,0.5],[1,0.5]];portConstraint=eastwest;rotatable=0;whiteSpace=wrap;html=1;" vertex="1" parent="jdDbVD5xY_cFmAnzBWXt-9">
          <mxGeometry y="30" width="140" height="30" as="geometry" />
        </mxCell>
        <mxCell id="jdDbVD5xY_cFmAnzBWXt-11" value="Puesto" style="text;strokeColor=none;fillColor=none;align=left;verticalAlign=middle;spacingLeft=4;spacingRight=4;overflow=hidden;points=[[0,0.5],[1,0.5]];portConstraint=eastwest;rotatable=0;whiteSpace=wrap;html=1;" vertex="1" parent="jdDbVD5xY_cFmAnzBWXt-9">
          <mxGeometry y="60" width="140" height="30" as="geometry" />
        </mxCell>
        <mxCell id="jdDbVD5xY_cFmAnzBWXt-12" value="Localización" style="text;strokeColor=none;fillColor=none;align=left;verticalAlign=middle;spacingLeft=4;spacingRight=4;overflow=hidden;points=[[0,0.5],[1,0.5]];portConstraint=eastwest;rotatable=0;whiteSpace=wrap;html=1;miterlimit=6;" vertex="1" parent="jdDbVD5xY_cFmAnzBWXt-9">
          <mxGeometry y="90" width="140" height="30" as="geometry" />
        </mxCell>
        <mxCell id="jdDbVD5xY_cFmAnzBWXt-18" value="Remoto o presencial" style="text;strokeColor=none;fillColor=none;align=left;verticalAlign=middle;spacingLeft=4;spacingRight=4;overflow=hidden;points=[[0,0.5],[1,0.5]];portConstraint=eastwest;rotatable=0;whiteSpace=wrap;html=1;miterlimit=6;" vertex="1" parent="jdDbVD5xY_cFmAnzBWXt-9">
          <mxGeometry y="120" width="140" height="30" as="geometry" />
        </mxCell>
        <mxCell id="jdDbVD5xY_cFmAnzBWXt-24" value="Remoto o presencial" style="text;strokeColor=none;fillColor=none;align=left;verticalAlign=middle;spacingLeft=4;spacingRight=4;overflow=hidden;points=[[0,0.5],[1,0.5]];portConstraint=eastwest;rotatable=0;whiteSpace=wrap;html=1;miterlimit=6;" vertex="1" parent="jdDbVD5xY_cFmAnzBWXt-9">
          <mxGeometry y="150" width="140" height="30" as="geometry" />
        </mxCell>
        <mxCell id="jdDbVD5xY_cFmAnzBWXt-19" value="Sueldo" style="text;strokeColor=none;fillColor=none;align=left;verticalAlign=middle;spacingLeft=4;spacingRight=4;overflow=hidden;points=[[0,0.5],[1,0.5]];portConstraint=eastwest;rotatable=0;whiteSpace=wrap;html=1;miterlimit=6;" vertex="1" parent="jdDbVD5xY_cFmAnzBWXt-9">
          <mxGeometry y="180" width="140" height="30" as="geometry" />
        </mxCell>
        <mxCell id="jdDbVD5xY_cFmAnzBWXt-20" value="Fecha publicado" style="text;strokeColor=none;fillColor=none;align=left;verticalAlign=middle;spacingLeft=4;spacingRight=4;overflow=hidden;points=[[0,0.5],[1,0.5]];portConstraint=eastwest;rotatable=0;whiteSpace=wrap;html=1;miterlimit=6;" vertex="1" parent="jdDbVD5xY_cFmAnzBWXt-9">
          <mxGeometry y="210" width="140" height="30" as="geometry" />
        </mxCell>
        <mxCell id="jdDbVD5xY_cFmAnzBWXt-21" value="Fecha inscripción" style="text;strokeColor=none;fillColor=none;align=left;verticalAlign=middle;spacingLeft=4;spacingRight=4;overflow=hidden;points=[[0,0.5],[1,0.5]];portConstraint=eastwest;rotatable=0;whiteSpace=wrap;html=1;miterlimit=6;" vertex="1" parent="jdDbVD5xY_cFmAnzBWXt-9">
          <mxGeometry y="240" width="140" height="30" as="geometry" />
        </mxCell>
        <mxCell id="jdDbVD5xY_cFmAnzBWXt-22" value="Plataforma" style="text;strokeColor=none;fillColor=none;align=left;verticalAlign=middle;spacingLeft=4;spacingRight=4;overflow=hidden;points=[[0,0.5],[1,0.5]];portConstraint=eastwest;rotatable=0;whiteSpace=wrap;html=1;miterlimit=6;" vertex="1" parent="jdDbVD5xY_cFmAnzBWXt-9">
          <mxGeometry y="270" width="140" height="30" as="geometry" />
        </mxCell>
        <mxCell id="jdDbVD5xY_cFmAnzBWXt-23" value="Estado" style="text;strokeColor=none;fillColor=none;align=left;verticalAlign=middle;spacingLeft=4;spacingRight=4;overflow=hidden;points=[[0,0.5],[1,0.5]];portConstraint=eastwest;rotatable=0;whiteSpace=wrap;html=1;miterlimit=6;" vertex="1" parent="jdDbVD5xY_cFmAnzBWXt-9">
          <mxGeometry y="300" width="140" height="30" as="geometry" />
        </mxCell>
        <mxCell id="jdDbVD5xY_cFmAnzBWXt-28" value="" style="edgeStyle=orthogonalEdgeStyle;rounded=0;orthogonalLoop=1;jettySize=auto;html=1;" edge="1" parent="1" source="jdDbVD5xY_cFmAnzBWXt-25" target="jdDbVD5xY_cFmAnzBWXt-27">
          <mxGeometry relative="1" as="geometry" />
        </mxCell>
        <mxCell id="jdDbVD5xY_cFmAnzBWXt-25" value="Añadir entrada a base de datos (google sheets o airtable?)" style="whiteSpace=wrap;html=1;fontStyle=0;startSize=30;horizontal=1;" vertex="1" parent="1">
          <mxGeometry x="469" y="165" width="120" height="60" as="geometry" />
        </mxCell>
        <mxCell id="jdDbVD5xY_cFmAnzBWXt-27" value="Notificación a telegram bot" style="whiteSpace=wrap;html=1;fontStyle=0;startSize=30;horizontal=1;" vertex="1" parent="1">
          <mxGeometry x="669" y="165" width="120" height="60" as="geometry" />
        </mxCell>
      </root>
    </mxGraphModel>
  </diagram>
</mxfile>
